PathFileType	4	(X/Y/Z)	Formatted/subject02/trials/walk2/markers.trc
DataRate	CameraRate	NumFrames	NumMarkers	Units	OrigDataRate	OrigDataStartFrame	OrigNumFrames
200.00000000000426	200.00000000000426	4	64	m	200.00000000000426	88	235
Frame#	Time	CLAV			C7			RACR			RASH			RPSH			RLEL			RMEL			RUA1			RUA2			RUA3			RFAsuperior			RFAradius			RFAulna			RASI			RPSI			RCAL			RTOE			RMT5			RTH1			RTH2			RTH3			RTB1			RTB2			RTB3			RLFC			RMFC			RLMAL			RMMAL			RHJC			RKJC			REJC			RAJC			RSJC			LACR			LASH			LPSH			LLEL			LMEL			LUA1			LUA2			LUA3			LFAsuperior			LFAradius			LFAulna			LASI			LPSI			LCAL			LTOE			LMT5			LTH1			LTH2			LTH3			LTB1			LTB2			LTB3			LLFC			LMFC			LLMAL			LMMAL			LHJC			LKJC			LEJC			LAJC			LSJC			
		X1	Y1	Z1	X2	Y2	Z2	X3	Y3	Z3	X4	Y4	Z4	X5	Y5	Z5	X6	Y6	Z6	X7	Y7	Z7	X8	Y8	Z8	X9	Y9	Z9	X10	Y10	Z10	X11	Y11	Z11	X12	Y12	Z12	X13	Y13	Z13	X14	Y14	Z14	X15	Y15	Z15	X16	Y16	Z16	X17	Y17	Z17	X18	Y18	Z18	X19	Y19	Z19	X20	Y20	Z20	X21	Y21	Z21	X22	Y22	Z22	X23	Y23	Z23	X24	Y24	Z24	X25	Y25	Z25	X26	Y26	Z26	X27	Y27	Z27	X28	Y28	Z28	X29	Y29	Z29	X30	Y30	Z30	X31	Y31	Z31	X32	Y32	Z32	X33	Y33	Z33	X34	Y34	Z34	X35	Y35	Z35	X36	Y36	Z36	X37	Y37	Z37	X38	Y38	Z38	X39	Y39	Z39	X40	Y40	Z40	X41	Y41	Z41	X42	Y42	Z42	X43	Y43	Z43	X44	Y44	Z44	X45	Y45	Z45	X46	Y46	Z46	X47	Y47	Z47	X48	Y48	Z48	X49	Y49	Z49	X50	Y50	Z50	X51	Y51	Z51	X52	Y52	Z52	X53	Y53	Z53	X54	Y54	Z54	X55	Y55	Z55	X56	Y56	Z56	X57	Y57	Z57	X58	Y58	Z58	X59	Y59	Z59	X60	Y60	Z60	X61	Y61	Z61	X62	Y62	Z62	X63	Y63	Z63	X64	Y64	Z64	

89	3.52	1.501568950859337	1.479370533090485	-0.4433511224406408	1.376647661372177	1.570634141975135	-0.4726002066767331	1.44568466421048	1.531628887733396	-0.3021121336565419	1.497703350664392	1.479625072038408	-0.2747493224191123	1.39936045241298	1.503800207616174	-0.2734480614464499	1.338618145380785	1.191154369581594	-0.147919294062038	1.316110310244991	1.180590738517949	-0.2179507217209261	1.432817623805543	1.423455397720346	-0.2211689145132183	1.429665769091057	1.329613235051888	-0.224600034203398	1.363175380126056	1.321772526052582	-0.1883881756740641	1.422142344119379	1.128435153424124	-0.1895139607590862	1.552692051484593	1.008726330919278	-0.1500194089969013	1.499907910540407	0.9811741981702529	-0.1050982081800935	1.469362671179396	1.070909912626932	-0.3268378898583475	1.292378889942833	1.086041380245828	-0.4276577037461702	1.165319685234182	0.07545652230291044	-0.4211059069759009	1.394589909003508	0.03628170835122333	-0.4470118944131841	1.328486793531692	0.009649506139211507	-0.3544626012322161	1.398817552186238	0.8875370450963727	-0.2754823331342001	1.428483539823235	0.7731092248412933	-0.2920308869608749	1.334397685058773	0.6780539613292724	-0.3221652213416366	1.35180915613622	0.3705062139518385	-0.4091564607200349	1.320577397016385	0.3079626931215523	-0.3415182378251065	1.312048272723908	0.2101841844672906	-0.412398745333425	1.351127434815607	0.5376351834912361	-0.3372225350669031	1.349834031841066	0.5435971680767653	-0.453132298143994	1.245994828050848	0.07669722364820664	-0.3604021179536476	1.255096548931774	0.08012124044799618	-0.4646817714947271	1.40270093710344	0.9584128993441349	-0.3742701539683534	1.3519278664779	0.5401058093927363	-0.396988768090695	1.331670692440878	1.176877186732321	-0.1810576275480631	1.234990936175638	0.06833885559340069	-0.4211657881720263	1.451634619978518	1.490949914299813	-0.2741397467164686	1.43976172619806	1.523061353321678	-0.6491374365131088	1.490780057522312	1.472948162410666	-0.6739325212223377	1.384569727410786	1.499057308834653	-0.6725271593718622	1.340737141797554	1.160204671840421	-0.7206987569176552	1.316689816130633	1.15862018780133	-0.6480329540004748	1.416763352412032	1.422329522047428	-0.7124581729585459	1.429306749206671	1.35014352517971	-0.7002150760217295	1.337385111907275	1.324838664188289	-0.6897031866855882	1.390012583597962	1.079102943454269	-0.6645890269817233	1.451053774370872	0.8989990278320271	-0.7115254673911029	1.385077012863057	0.8884893687212689	-0.7414097724001137	1.488330879215988	1.058283999908779	-0.5882185311726499	1.298146877079119	1.087340554844059	-0.5099791552559209	1.458097569078282	0.1102466557331866	-0.5704978741126704	1.686780951100717	0.06388704579337064	-0.5528045856237929	1.616535741328313	0.0463997326582548	-0.6419504943080362	1.466561385591325	0.863170147835283	-0.6426871034647895	1.571096063657212	0.7786225284799736	-0.6397192386726006	1.558415526516998	0.647100367150786	-0.6285178617912855	1.640602691735676	0.4194052667556976	-0.5781804379980359	1.598628455469042	0.3414020539978172	-0.6351745742717168	1.591779294074036	0.2246806031232902	-0.5742922065663871	1.603174612391971	0.5836235953796027	-0.6358993810217439	1.620594619968618	0.5792842662163964	-0.5212259103038709	1.534331784940337	0.113208953364039	-0.6313055359264403	1.549449921978227	0.112011905764041	-0.5276772561653925	1.41295655456732	0.9504980558718656	-0.5343786487607316	1.618999534602713	0.5792271982864811	-0.5768420021914821	1.33594251379034	1.153089761301778	-0.6868989405144688	1.52739966214415	0.1013229856489328	-0.5705285582427577	1.444711326836437	1.48427300467207	-0.673322945519694	
90	3.525	1.507542678525019	1.478590196043987	-0.44360869658747	1.382749100679608	1.570039619301836	-0.4728225583106848	1.451710223694885	1.530843846967898	-0.3023474703795901	1.503654714411101	1.478754031277476	-0.2750072982584293	1.405344487616462	1.503061655418696	-0.2737054484184723	1.34623262061326	1.190243142986161	-0.1469610811333014	1.323421061887045	1.17944528921553	-0.2168583839862692	1.43927453580002	1.422701214537006	-0.221185492854123	1.436429129921456	1.328841328387722	-0.2243923140515908	1.370142975555455	1.320853714975753	-0.1878397353214226	1.430015881746044	1.128202291682403	-0.188954660922024	1.56181004537188	1.00965831590313	-0.1500847221756721	1.509524821492464	0.9817099661272854	-0.1048260771921336	1.474738232751272	1.070373372071156	-0.3272080359844172	1.297826081139825	1.085541691134992	-0.4281479572963282	1.165527400880366	0.07593055869797158	-0.4210354020850239	1.394707783967312	0.03613490066588908	-0.4467896124282104	1.328484919145619	0.009741829992661119	-0.3542574248755309	1.403648595880918	0.8870616545779655	-0.275790339821228	1.43223936542954	0.772363997642975	-0.2923634172301598	1.337240902589447	0.6781705812124883	-0.3223404360252849	1.352779889315816	0.3704995208521622	-0.4091927003237482	1.321348173075863	0.3080855824971247	-0.3415274102173985	1.312602342887024	0.2102795772040026	-0.4123435442787451	1.35265992423295	0.5376019088938044	-0.3373984082391942	1.351247613997466	0.5435569856226763	-0.4533071385790267	1.246172351875114	0.07700229711495277	-0.3602887805487415	1.255339684573687	0.08032880736533499	-0.4645658427313465	1.408033670636746	0.9578831411841824	-0.3745961548990726	1.353334772012022	0.5401067897891092	-0.3971446283316358	1.339173326012169	1.175867914243988	-0.180033325644976	1.235179719002329	0.06862971904185206	-0.4210525323279298	1.457601288669153	1.490140937806431	-0.2743974467009015	1.445822430626656	1.522481819068788	-0.6493783840536996	1.496776155003773	1.472313661591763	-0.6741951567607576	1.390601110065563	1.498565895664281	-0.672789158933604	1.345165168525361	1.160138629483159	-0.7209208757699033	1.321251560144326	1.158628073070732	-0.6482093847349718	1.422413955125245	1.421906320271042	-0.7126971266944893	1.434648354503935	1.3496571167847	-0.7005143340355702	1.342631645671419	1.324770575812719	-0.6898368537572354	1.394061092451997	1.078694266227578	-0.6649643082941026	1.453851072981258	0.8982262849761029	-0.7121124026677855	1.387739031206348	0.8881459118724304	-0.7418452412473454	1.493858783804864	1.0575375821416	-0.5885673542920933	1.303645423537028	1.08677489432502	-0.5104668091643512	1.477263908272359	0.1047244479805079	-0.5702385931412066	1.707099929792618	0.06436977798238463	-0.5527669324982493	1.637287777293494	0.04522963384124179	-0.6419134798093449	1.471952769414673	0.8619600611211001	-0.6425699849074038	1.576292127609209	0.7771903093525557	-0.6391066635152653	1.563298520332623	0.6457428173926349	-0.62739902437277	1.650005138410277	0.4191060189136867	-0.5771964363402297	1.610400817579241	0.3399974980857193	-0.6343629386315596	1.607277163083872	0.2229443224904072	-0.573813226253027	1.607925495826549	0.5821366220010004	-0.6344593441296534	1.625163724165359	0.5782167568066799	-0.5197433057189874	1.553249697524894	0.1099017129604528	-0.6310763568552317	1.568544147421784	0.1088775960254423	-0.5274720985279697	1.418382490530655	0.9498406092150594	-0.5346922889803366	1.62343550591263	0.5781727565851016	-0.575361987577415	1.340403276077192	1.153028739166898	-0.6871153756465157	1.546777072563454	0.09763040780699966	-0.57032529293625	1.450722729261824	1.483700568120718	-0.6735853052032298	
91	3.53	1.513530752855732	1.477765466119342	-0.4438752749011356	1.388864959838597	1.569398701141791	-0.4730587307137151	1.457739392069858	1.530007707322697	-0.3025935939488561	1.509608952165612	1.477832186292786	-0.2752745938431752	1.4113309185906	1.502269912467443	-0.2739777697027411	1.353883681235276	1.189273190746879	-0.1460344257495018	1.330773931388873	1.178239532990655	-0.2157968200765758	1.445740289475414	1.421894071231952	-0.2212189041411692	1.443212917001411	1.328017810855391	-0.2242052716424444	1.377132539772293	1.319876599701912	-0.1873155485926645	1.437912745543008	1.127897643701289	-0.1884229187101188	1.570915600519816	1.010506824581523	-0.1501752514355739	1.519126460704674	0.9821756257696578	-0.1045854717898036	1.480128281709429	1.069795200247022	-0.3276007306127958	1.303293642351988	1.085003058201066	-0.4286704411359888	1.165735125067411	0.07641138726331184	-0.4209699886877505	1.394824733991165	0.03598714978560638	-0.4465522842844027	1.328474469835537	0.009838547935129905	-0.3540419561810926	1.4084841804442	0.8865530824228516	-0.2761117768833696	1.436008220992901	0.7715969776831691	-0.2927001065013332	1.340116067077904	0.6782650221363944	-0.3225257697467371	1.353783528563648	0.3704818367217546	-0.4092267442627385	1.32214068024213	0.3082032190906114	-0.3415351797365205	1.313171105906285	0.2103697850469352	-0.4122854092763617	1.354235855027516	0.5375590039912979	-0.3375753025994525	1.352717206555827	0.5435035993663692	-0.4534832264902983	1.246346332856908	0.07731214904528988	-0.3601740791329371	1.255585951017347	0.08053757141016649	-0.4644479371391724	1.413375974934861	0.9573121128470827	-0.3749385490608007	1.354793646165258	0.5400957069809791	-0.3973018003257053	1.346716147645344	1.174799696913197	-0.179040465154107	1.235367765893793	0.06892524630195651	-0.4209383984425374	1.463570607337398	1.489280039119304	-0.2746670965745888	1.451910571648896	1.521864076702933	-0.6496306968587842	1.502802461048609	1.471643175434444	-0.6744676638483458	1.396662184787596	1.498035919703074	-0.673067093776677	1.349663004390479	1.160029920132674	-0.721149227303338	1.325861270481137	1.158599050354253	-0.6483994269628173	1.428111660186636	1.421441293988758	-0.7129497734873167	1.440038043459978	1.34913252927105	-0.7008150177602838	1.347926912649975	1.324659345168866	-0.6899971597553255	1.398157699887519	1.078250870274197	-0.6653170958822918	1.456715140299913	0.8974237415531473	-0.7126357235313661	1.390482789874842	0.8877700116662296	-0.7422421237852989	1.49941265842527	1.056726458353211	-0.5889364668639948	1.309168294877034	1.08616302930495	-0.5109864288519934	1.496365108677149	0.09955310359109674	-0.5700239237710534	1.72717974025052	0.06515376867098235	-0.5527136172098225	1.657856486488878	0.04440202030889642	-0.6418811005185359	1.47738337296627	0.8606869258659332	-0.6424457057776024	1.581483322905543	0.77564742135761	-0.6384344498603997	1.568106108411861	0.6442818578970815	-0.626249021842053	1.659215403258642	0.4188189698221378	-0.5761714450448711	1.622018020046257	0.3386875740376497	-0.6335298216962538	1.622610223505918	0.2214145171942014	-0.5733289061124179	1.612574091955995	0.5805276906946697	-0.632969717702545	1.629558698380627	0.5770027993990625	-0.5182030430360961	1.572051432444481	0.1069174632097297	-0.630869309358454	1.587499719363246	0.1060615790849925	-0.5272863510577391	1.423825020615432	0.9491278440729115	-0.5350209894795874	1.627716171591071	0.5769766235460219	-0.5738278197209541	1.344923986895559	1.152928317293032	-0.6873387710970045	1.566039286634463	0.09427044647775418	-0.5701479898578946	1.456764116220395	1.483091028260962	-0.6738601665797594	
92	3.535	1.519534327769598	1.476896986642851	-0.444151186447338	1.394996151764487	1.568711938879946	-0.4733083650737921	1.46377425064044	1.529121392601962	-0.3028505626066803	1.515568353515593	1.476860530369252	-0.2755515294352333	1.417322028263592	1.501425948905834	-0.2742647181007345	1.361567994733332	1.188247136776074	-0.1451410269420776	1.338166622365619	1.176976291773594	-0.2147681597850197	1.452215499293383	1.421035267792975	-0.2212694203360885	1.450016688190591	1.327144098492475	-0.2240392257231115	1.384142953851545	1.31884337725468	-0.1868169690526896	1.445830202346234	1.127522842719408	-0.187918825781502	1.580005125632236	1.011271964018228	-0.1502881061506608	1.528708006225562	0.9825717084450742	-0.1043740483069809	1.485531844853047	1.069173559578919	-0.3280138772353419	1.30878210257523	1.084425556258599	-0.4292253400618266	1.165941908065892	0.07689741546840653	-0.4209122665738327	1.394940483807498	0.03583910346686593	-0.446299055744325	1.328454176328145	0.00994014135279634	-0.3538161793984121	1.413322872154062	0.8860106630992705	-0.2764472430697859	1.439790615512333	0.770807529742832	-0.2930408602444989	1.343025244404672	0.6783350018432339	-0.322722905910617	1.354823329075266	0.3704503059811978	-0.4092596509226674	1.322956707526917	0.3083134479428365	-0.3415427898305679	1.31375555743213	0.210452695187498	-0.4122254678187181	1.355859518810786	0.5375039865221434	-0.3377544366767931	1.35424918233374	0.5434339439299978	-0.4536618728041258	1.246515445750548	0.0776259052911184	-0.3600595135224979	1.255834975462549	0.0807462438383687	-0.4643294574660177	1.418727318197485	0.9566988819542638	-0.3752979821514856	1.356310108280895	0.5400695456915257	-0.3974616588279278	1.3542962041735	1.173675219348289	-0.1780808885572477	1.235554175345482	0.06922456756937861	-0.4208249613274891	1.469544862451293	1.488368200682714	-0.2749487226655873	1.45802589549967	1.521208325738376	-0.6498943414722219	1.508858577929759	1.470936864136963	-0.6747502624077213	1.402752546657598	1.497467516156471	-0.6733605061664627	1.354232193309254	1.159877236871846	-0.7213823267448298	1.330521719262604	1.158531884917187	-0.6486011009815825	1.433855891028072	1.420934130656518	-0.7132156879312832	1.445476161736926	1.348569515670411	-0.7011169203864586	1.35327144941077	1.324503955349373	-0.690182431724542	1.402306181484869	1.077772439941526	-0.6656464622886931	1.459652401627135	0.89659174622511	-0.713095846811304	1.393314349679418	0.8873608312884063	-0.7426002660187422	1.504995186340324	1.055852860866733	-0.5893236236397396	1.314717183257956	1.085506315169484	-0.5115380710721591	1.515366583825	0.09475207745505802	-0.5698441290160154	1.746990415202558	0.06624813999562762	-0.5526313026405889	1.678209872919393	0.04392654807457736	-0.6418398907312982	1.482859721383896	0.8593584872338225	-0.6423171786568875	1.586679405396711	0.7740072763606769	-0.6377072879444678	1.572854322170214	0.64273007267426	-0.6250776144349144	1.668236160316016	0.4185526283914818	-0.575108939129012	1.633474771256926	0.3374822724943813	-0.6326755310526384	1.637759675492902	0.2201022712418246	-0.572833691967307	1.617139202988641	0.5788121031327975	-0.6314420193244618	1.633797317062266	0.5756552844433483	-0.5166167910019714	1.590706435452151	0.1042699511433404	-0.6306742569083869	1.60628445071252	0.1035794292131689	-0.5271094946738374	1.42928585274713	0.9483613237153312	-0.5353653273915855	1.631860801270215	0.5756519801659743	-0.5722515744211853	1.349506837212286	1.152787268785728	-0.6875675169585211	1.585153362029607	0.09125945849471961	-0.569986020585745	1.462835086865459	1.482444534450425	-0.6741474556380753	
